<mxfile host="app.diagrams.net" agent="Mozilla/5.0 (Windows NT 10.0; Win64; x64) AppleWebKit/537.36 (KHTML, like Gecko) Chrome/135.0.0.0 Safari/537.36" version="26.2.14">
  <diagram name="Страница — 1" id="oOJbh-bXk2o8b-5QtpvW">
    <mxGraphModel dx="1722" dy="948" grid="1" gridSize="10" guides="1" tooltips="1" connect="1" arrows="1" fold="1" page="1" pageScale="1" pageWidth="827" pageHeight="1169" math="0" shadow="0">
      <root>
        <mxCell id="0" />
        <mxCell id="1" parent="0" />
        <mxCell id="yHow243BQbqHlRSpVy6M-43" value="&lt;div&gt;&lt;br&gt;&lt;/div&gt;&lt;div&gt;&lt;br&gt;&lt;/div&gt;&lt;div&gt;&lt;br&gt;&lt;/div&gt;&lt;div&gt;&lt;br&gt;&lt;/div&gt;&lt;div&gt;&lt;br&gt;&lt;/div&gt;&lt;div&gt;&lt;br&gt;&lt;/div&gt;&lt;div&gt;&lt;br&gt;&lt;/div&gt;&lt;div&gt;&lt;br&gt;&lt;/div&gt;&lt;div&gt;&lt;br&gt;&lt;/div&gt;&lt;div&gt;&lt;br&gt;&lt;/div&gt;&lt;div&gt;&lt;br&gt;&lt;/div&gt;&lt;div&gt;&lt;br&gt;&lt;/div&gt;&lt;div&gt;&lt;br&gt;&lt;/div&gt;&lt;div&gt;&lt;br&gt;&lt;/div&gt;&lt;div style=&quot;&quot;&gt;&lt;span style=&quot;background-color: transparent; color: light-dark(rgb(0, 0, 0), rgb(255, 255, 255));&quot;&gt;&amp;nbsp; Selectel Cloud&lt;/span&gt;&lt;/div&gt;" style="rounded=0;whiteSpace=wrap;html=1;fillColor=none;dashed=1;dashPattern=8 8;align=left;" vertex="1" parent="1">
          <mxGeometry x="110" y="190" width="475" height="240" as="geometry" />
        </mxCell>
        <mxCell id="yHow243BQbqHlRSpVy6M-13" value="&lt;div&gt;&lt;br&gt;&lt;/div&gt;&lt;div&gt;&lt;div&gt;&lt;br&gt;&lt;/div&gt;&lt;div&gt;&lt;br&gt;&lt;/div&gt;&lt;div&gt;&lt;br&gt;&lt;/div&gt;&lt;div&gt;&lt;br&gt;&lt;/div&gt;&lt;div&gt;&lt;span style=&quot;background-color: transparent; color: light-dark(rgb(0, 0, 0), rgb(255, 255, 255));&quot;&gt;Kubrernates cluster&lt;/span&gt;&lt;/div&gt;&lt;/div&gt;" style="rounded=0;whiteSpace=wrap;html=1;" vertex="1" parent="1">
          <mxGeometry x="240" y="240" width="180" height="130" as="geometry" />
        </mxCell>
        <mxCell id="yHow243BQbqHlRSpVy6M-11" style="edgeStyle=orthogonalEdgeStyle;rounded=0;orthogonalLoop=1;jettySize=auto;html=1;exitX=1;exitY=0.25;exitDx=0;exitDy=0;" edge="1" parent="1" source="yHow243BQbqHlRSpVy6M-2" target="yHow243BQbqHlRSpVy6M-7">
          <mxGeometry relative="1" as="geometry">
            <mxPoint x="398" y="290" as="sourcePoint" />
          </mxGeometry>
        </mxCell>
        <mxCell id="yHow243BQbqHlRSpVy6M-2" value="Docker container:&lt;div&gt;stateless python node&lt;/div&gt;" style="rounded=0;whiteSpace=wrap;html=1;" vertex="1" parent="1">
          <mxGeometry x="268" y="260" width="130" height="60" as="geometry" />
        </mxCell>
        <mxCell id="yHow243BQbqHlRSpVy6M-7" value="S3 storage&lt;br&gt;for photos" style="shape=cylinder3;whiteSpace=wrap;html=1;boundedLbl=1;backgroundOutline=1;size=15;" vertex="1" parent="1">
          <mxGeometry x="478" y="200" width="64" height="90" as="geometry" />
        </mxCell>
        <mxCell id="yHow243BQbqHlRSpVy6M-8" value="Postgres SQL for text fields" style="shape=cylinder3;whiteSpace=wrap;html=1;boundedLbl=1;backgroundOutline=1;size=15;" vertex="1" parent="1">
          <mxGeometry x="480" y="320" width="60" height="90" as="geometry" />
        </mxCell>
        <mxCell id="yHow243BQbqHlRSpVy6M-9" value="Telegram bot API" style="rounded=1;whiteSpace=wrap;html=1;" vertex="1" parent="1">
          <mxGeometry x="230" y="470" width="310" height="30" as="geometry" />
        </mxCell>
        <mxCell id="yHow243BQbqHlRSpVy6M-12" style="edgeStyle=orthogonalEdgeStyle;rounded=0;orthogonalLoop=1;jettySize=auto;html=1;exitX=1;exitY=0.75;exitDx=0;exitDy=0;entryX=0;entryY=0.5;entryDx=0;entryDy=0;entryPerimeter=0;startArrow=classic;startFill=1;" edge="1" parent="1" source="yHow243BQbqHlRSpVy6M-2" target="yHow243BQbqHlRSpVy6M-8">
          <mxGeometry relative="1" as="geometry" />
        </mxCell>
        <mxCell id="yHow243BQbqHlRSpVy6M-37" style="edgeStyle=orthogonalEdgeStyle;rounded=0;orthogonalLoop=1;jettySize=auto;html=1;exitX=1;exitY=0.5;exitDx=0;exitDy=0;entryX=0;entryY=0.5;entryDx=0;entryDy=0;" edge="1" parent="1" source="yHow243BQbqHlRSpVy6M-15" target="yHow243BQbqHlRSpVy6M-17">
          <mxGeometry relative="1" as="geometry" />
        </mxCell>
        <mxCell id="yHow243BQbqHlRSpVy6M-15" value="GitHub code repository" style="rounded=0;whiteSpace=wrap;html=1;" vertex="1" parent="1">
          <mxGeometry x="230" y="70" width="110" height="40" as="geometry" />
        </mxCell>
        <mxCell id="yHow243BQbqHlRSpVy6M-38" style="edgeStyle=orthogonalEdgeStyle;rounded=0;orthogonalLoop=1;jettySize=auto;html=1;exitX=1;exitY=0.5;exitDx=0;exitDy=0;" edge="1" parent="1" source="yHow243BQbqHlRSpVy6M-16" target="yHow243BQbqHlRSpVy6M-17">
          <mxGeometry relative="1" as="geometry" />
        </mxCell>
        <mxCell id="yHow243BQbqHlRSpVy6M-16" value="GitHub secrets" style="rounded=0;whiteSpace=wrap;html=1;" vertex="1" parent="1">
          <mxGeometry x="230" y="120" width="110" height="30" as="geometry" />
        </mxCell>
        <mxCell id="yHow243BQbqHlRSpVy6M-17" value="GitHub &lt;br&gt;actions" style="rounded=0;whiteSpace=wrap;html=1;" vertex="1" parent="1">
          <mxGeometry x="383" y="80" width="62" height="50" as="geometry" />
        </mxCell>
        <mxCell id="yHow243BQbqHlRSpVy6M-34" style="edgeStyle=orthogonalEdgeStyle;rounded=0;orthogonalLoop=1;jettySize=auto;html=1;exitX=0.9;exitY=0.5;exitDx=0;exitDy=0;exitPerimeter=0;entryX=0;entryY=0.5;entryDx=0;entryDy=0;" edge="1" parent="1" source="yHow243BQbqHlRSpVy6M-18" target="yHow243BQbqHlRSpVy6M-15">
          <mxGeometry relative="1" as="geometry" />
        </mxCell>
        <mxCell id="yHow243BQbqHlRSpVy6M-18" value="&lt;div&gt;&lt;br&gt;&lt;/div&gt;&lt;div&gt;&lt;br&gt;&lt;/div&gt;&lt;div&gt;&lt;br&gt;&lt;/div&gt;&lt;div&gt;&lt;br&gt;&lt;/div&gt;&lt;div&gt;developer&lt;/div&gt;" style="shape=actor;whiteSpace=wrap;html=1;" vertex="1" parent="1">
          <mxGeometry x="140" y="70" width="30" height="40" as="geometry" />
        </mxCell>
        <mxCell id="yHow243BQbqHlRSpVy6M-35" style="edgeStyle=orthogonalEdgeStyle;rounded=0;orthogonalLoop=1;jettySize=auto;html=1;exitX=0.5;exitY=0;exitDx=0;exitDy=0;" edge="1" parent="1" source="yHow243BQbqHlRSpVy6M-21" target="yHow243BQbqHlRSpVy6M-22">
          <mxGeometry relative="1" as="geometry" />
        </mxCell>
        <mxCell id="yHow243BQbqHlRSpVy6M-21" value="&lt;div&gt;&lt;br&gt;&lt;/div&gt;&lt;div&gt;&lt;br&gt;&lt;/div&gt;&lt;div&gt;&lt;br&gt;&lt;/div&gt;&lt;div&gt;&lt;br&gt;&lt;/div&gt;&lt;div&gt;user&lt;/div&gt;" style="shape=actor;whiteSpace=wrap;html=1;" vertex="1" parent="1">
          <mxGeometry x="525" y="660" width="30" height="40" as="geometry" />
        </mxCell>
        <mxCell id="yHow243BQbqHlRSpVy6M-26" style="edgeStyle=orthogonalEdgeStyle;rounded=0;orthogonalLoop=1;jettySize=auto;html=1;entryX=0.5;entryY=1;entryDx=0;entryDy=0;startArrow=classic;startFill=1;" edge="1" parent="1" source="yHow243BQbqHlRSpVy6M-22" target="yHow243BQbqHlRSpVy6M-9">
          <mxGeometry relative="1" as="geometry" />
        </mxCell>
        <mxCell id="yHow243BQbqHlRSpVy6M-27" style="edgeStyle=orthogonalEdgeStyle;rounded=0;orthogonalLoop=1;jettySize=auto;html=1;" edge="1" parent="1" source="yHow243BQbqHlRSpVy6M-23" target="yHow243BQbqHlRSpVy6M-22">
          <mxGeometry relative="1" as="geometry">
            <Array as="points">
              <mxPoint x="610" y="530" />
              <mxPoint x="540" y="530" />
            </Array>
          </mxGeometry>
        </mxCell>
        <mxCell id="yHow243BQbqHlRSpVy6M-44" style="edgeStyle=orthogonalEdgeStyle;rounded=0;orthogonalLoop=1;jettySize=auto;html=1;" edge="1" parent="1" source="yHow243BQbqHlRSpVy6M-22" target="yHow243BQbqHlRSpVy6M-39">
          <mxGeometry relative="1" as="geometry" />
        </mxCell>
        <mxCell id="yHow243BQbqHlRSpVy6M-22" value="Telegram application" style="sketch=0;outlineConnect=0;fontColor=#232F3E;gradientColor=none;strokeColor=#232F3E;fillColor=#ffffff;dashed=0;verticalLabelPosition=bottom;verticalAlign=top;align=center;html=1;fontSize=12;fontStyle=0;aspect=fixed;shape=mxgraph.aws4.resourceIcon;resIcon=mxgraph.aws4.mobile_client;" vertex="1" parent="1">
          <mxGeometry x="510" y="550" width="60" height="60" as="geometry" />
        </mxCell>
        <mxCell id="yHow243BQbqHlRSpVy6M-45" value="" style="edgeStyle=orthogonalEdgeStyle;rounded=0;orthogonalLoop=1;jettySize=auto;html=1;" edge="1" parent="1" source="yHow243BQbqHlRSpVy6M-23" target="yHow243BQbqHlRSpVy6M-22">
          <mxGeometry relative="1" as="geometry" />
        </mxCell>
        <mxCell id="yHow243BQbqHlRSpVy6M-23" value="Web" style="sketch=0;outlineConnect=0;fontColor=#232F3E;gradientColor=none;fillColor=#232F3D;strokeColor=none;dashed=0;verticalLabelPosition=bottom;verticalAlign=top;align=center;html=1;fontSize=12;fontStyle=0;aspect=fixed;pointerEvents=1;shape=mxgraph.aws4.globe;" vertex="1" parent="1">
          <mxGeometry x="590" y="465.5" width="39" height="39" as="geometry" />
        </mxCell>
        <mxCell id="yHow243BQbqHlRSpVy6M-25" style="edgeStyle=orthogonalEdgeStyle;rounded=0;orthogonalLoop=1;jettySize=auto;html=1;exitX=0.5;exitY=0;exitDx=0;exitDy=0;entryX=0.897;entryY=0.945;entryDx=0;entryDy=0;entryPerimeter=0;startArrow=classic;startFill=1;" edge="1" parent="1" source="yHow243BQbqHlRSpVy6M-9" target="yHow243BQbqHlRSpVy6M-2">
          <mxGeometry relative="1" as="geometry" />
        </mxCell>
        <mxCell id="yHow243BQbqHlRSpVy6M-31" style="edgeStyle=orthogonalEdgeStyle;rounded=0;orthogonalLoop=1;jettySize=auto;html=1;exitX=1;exitY=0.5;exitDx=0;exitDy=0;exitPerimeter=0;" edge="1" parent="1" source="yHow243BQbqHlRSpVy6M-7" target="yHow243BQbqHlRSpVy6M-23">
          <mxGeometry relative="1" as="geometry">
            <Array as="points">
              <mxPoint x="610" y="245" />
            </Array>
          </mxGeometry>
        </mxCell>
        <mxCell id="yHow243BQbqHlRSpVy6M-39" value="&#xa;&#xa;&#xa;&#xa;&#xa;&#xa;share catalog&#xa;of own library&#xa;to friends" style="shape=mxgraph.networks2.icon;aspect=fixed;fillColor=#EDEDED;strokeColor=#000000;gradientColor=#5B6163;network2IconShadow=1;network2bgFillColor=none;network2Icon=mxgraph.networks2.social_media;network2IconYOffset=0.0153;network2IconW=1.02;network2IconH=0.932;" vertex="1" parent="1">
          <mxGeometry x="670" y="556.7" width="51" height="46.6" as="geometry" />
        </mxCell>
        <mxCell id="yHow243BQbqHlRSpVy6M-41" value="Container&amp;nbsp;&lt;div&gt;registry&lt;/div&gt;" style="rounded=0;whiteSpace=wrap;html=1;" vertex="1" parent="1">
          <mxGeometry x="130" y="260" width="70" height="40" as="geometry" />
        </mxCell>
        <mxCell id="yHow243BQbqHlRSpVy6M-46" style="edgeStyle=orthogonalEdgeStyle;rounded=0;orthogonalLoop=1;jettySize=auto;html=1;entryX=0.5;entryY=0;entryDx=0;entryDy=0;" edge="1" parent="1" source="yHow243BQbqHlRSpVy6M-17" target="yHow243BQbqHlRSpVy6M-41">
          <mxGeometry relative="1" as="geometry">
            <mxPoint x="40" y="170" as="targetPoint" />
            <Array as="points">
              <mxPoint x="414" y="160" />
              <mxPoint x="165" y="160" />
            </Array>
          </mxGeometry>
        </mxCell>
        <mxCell id="yHow243BQbqHlRSpVy6M-47" style="edgeStyle=orthogonalEdgeStyle;rounded=0;orthogonalLoop=1;jettySize=auto;html=1;entryX=0.001;entryY=0.308;entryDx=0;entryDy=0;entryPerimeter=0;" edge="1" parent="1" source="yHow243BQbqHlRSpVy6M-41" target="yHow243BQbqHlRSpVy6M-13">
          <mxGeometry relative="1" as="geometry" />
        </mxCell>
      </root>
    </mxGraphModel>
  </diagram>
</mxfile>
